/* XPM */
static char *ceni[] = {
/* columns rows colors chars-per-pixel */
"32 32 126 2 ",
"   c #122643",
".  c #142846",
"X  c #162C4D",
"o  c #192E4C",
"O  c #1F314D",
"+  c #162E51",
"@  c #182F52",
"#  c #1A3155",
"$  c #1C355B",
"%  c #1E385F",
"&  c #22334E",
"*  c #233552",
"=  c #253956",
"-  c #2A3B55",
";  c #243B5D",
":  c #293E5C",
">  c #1E3860",
",  c #213C64",
"<  c #283F60",
"1  c #233F69",
"2  c #2D415F",
"3  c #354356",
"4  c #384457",
"5  c #32435E",
"6  c #3A475C",
"7  c #3B485D",
"8  c #2C4263",
"9  c #26426C",
"0  c #2A436B",
"q  c #324560",
"w  c #3D4D66",
"e  c #31496C",
"r  c #3E506C",
"t  c #294671",
"y  c #2C4975",
"u  c #2E4D7B",
"i  c #324D75",
"p  c #324E7A",
"a  c #3B5275",
"s  c #34517D",
"d  c #434E60",
"f  c #4B5564",
"g  c #4F5967",
"h  c #42536E",
"j  c #4A576A",
"k  c #4F5B6D",
"l  c #555E6C",
"z  c #4A5B73",
"x  c #475B78",
"c  c #4C5E7B",
"v  c #5C636F",
"b  c #4F627F",
"n  c #556072",
"m  c #5C6572",
"M  c #5E6877",
"N  c #57667B",
"B  c #636A76",
"V  c #626C7C",
"C  c #6C727D",
"Z  c #335383",
"A  c #385684",
"S  c #3E5A87",
"D  c #365789",
"F  c #37588B",
"G  c #3B5B8B",
"H  c #3C5E91",
"J  c #3E6196",
"K  c #3F639A",
"L  c #466085",
"P  c #4C6281",
"I  c #5C6C85",
"U  c #416295",
"Y  c #42659B",
"T  c #44699E",
"R  c #646F80",
"E  c #6C7582",
"W  c #687589",
"Q  c #6D788A",
"!  c #717781",
"~  c #747B84",
"^  c #787E87",
"/  c #757D89",
"(  c #456BA4",
")  c #486EA7",
"_  c #4A6FA9",
"`  c #4971AD",
"'  c #5B7BAD",
"]  c #4D75B2",
"[  c #4F78B7",
"{  c #5179B6",
"}  c #597BB0",
"|  c #537CBB",
" . c #7C8189",
".. c #7D8592",
"X. c #5581C2",
"o. c #5885C6",
"O. c #5B87CB",
"+. c #82878E",
"@. c #84888E",
"#. c #828790",
"$. c #868B93",
"%. c #898E96",
"&. c #898F98",
"*. c #8E9297",
"=. c #8E9298",
"-. c #949494",
";. c #92969B",
":. c #96999D",
">. c #9D9D9E",
",. c #9B9DA1",
"<. c #9FA1A5",
"1. c #A0A2A5",
"2. c #A3A7AC",
"3. c #A6AAAD",
"4. c #A9ABAC",
"5. c #ADAEB1",
"6. c #AEB0B1",
"7. c #AAB1BC",
"8. c #B3B4B5",
"9. c #B7B8B9",
"0. c #BCBCBD",
"q. c #BFBFC0",
"w. c #C3C3C4",
"e. c #CCCCCC",
"r. c #D8D8D8",
"t. c None",
/* pixels */
"t.t.r.e.w.w.w.w.w.w.w.w.w.w.w.w.w.w.w.w.w.w.w.w.w.w.w.w.w.w.t.t.",
"t.e.7.} | | | { ] ` ) ( T U H D A s s p p u u p u t 0 y b 2.6.t.",
"r.7.o.O.X.X.| [ ] ` ) K G P / %.;.,.;.%.~ z 0 9 0 ; %.r , 0 1.4.",
"e.' O.o.X.| [ ] ` ( G Q 8.e.e.e.e.9.8.w.e.e.w.<.! :.e.j , , c >.",
"w.| X.X.| [ ] ` Y I 0.e.e.w./ x y y t t h ^ w.e.e.e.e.k , > 0 >.",
"w.| X.| [ ] ` U ..e.e.e.<.a Z Z Z s u u t 9 q <.e.e.e.n % ; 8 >.",
"w.[ | [ ] ` J $.e.e.e.;.u D Z Z Z u u y t t 9 ; :.e.e.m $ % 8 >.",
"w.` [ ] ` T W e.e.e.5.u D A Z Z u u y y t t 9 , : 9.e.B $ $ 8 >.",
"w.` ] ` ) L w.e.e.e.c D D Z Z u u y y y 9 1 1 1 % l e.C # $ < >.",
"w._ ` ) J &.e.e.e.<.u D Z s u u y t t 9 9 1 1 , , # 9.! # $ 8 >.",
"w.( ) ( S w.e.e.e.V Z Z Z u u y y t 9 1 1 1 , > % #  .^ # # : ,.",
"w.T ( J I e.e.e.e.i Z Z u u y t t 9 1 1 1 , > > % % = : # # 8 >.",
"w.T T H $.e.e.e.8.y Z u u y t t 9 9 1 1 , > > % % # 5 n + # , >.",
"w.J J A 5.e.e.e.:.y u u y y t 9 9 1 1 , , > % % $ # M 2.+ # : >.",
"w.J H Z 0.e.e.e.%.y u y y t 9 9 1 1 > , > % $ $ $ # # X # + : ,.",
"w.H H Z e.e.e.e.+.t y t 1 9 e % , > $ % $ # = + $ + X # + + 2 >.",
"w.H G s e.e.e.e.$.t y 1 V Q ^ 4.2 < ^ w.j ;.q.E X : +.q.X @ : >.",
"w.G F y w.e.e.e.=.9 1 n ! # # ,.;.# d e.f X g w.o @ l e.. @ : >.",
"w.A A y 9.e.e.e.1.1 < ;.=./ ~ @.#.$ 7 e.* # 7 e.O X f w.  @ : ,.",
"w.A Z y :.e.e.e.w.; , 4.l $ $ $ $ $ 7 e.* + d e.& X f w.. @ : >.",
"w.Z Z t E e.e.e.e.w % :.#.# % $ < : 6 e.* @ 6 e.O X f w.. + : >.",
"w.s u y h e.e.e.e.B $ M e.v # 6 ^ @ 6 e.& @ 7 e.O X f e.  + : >.",
"w.s u y 1 ,.e.e.e.8.* $  .w.w.=.* # E 8.m & ~ 8.v - ^ 8.l @ : ,.",
"w.u y y 9 k e.e.e.e.k $ # # + + # @ @ X X @ X . X X .   . @ : >.",
"w.i t t 9 ; %.e.e.e.8.* $ $ # $ # # + # + + + + + . d ,.X + : >.",
"w.i t 9 9 1 = 5.e.e.e.1.& # $ # # # # + + + + X . v e.v X + : >.",
"w.t 9 9 , , , : 4.e.e.e.8.d X + + + + + + X   4 1.e.l . @ X : ,.",
"w.i 0 1 , , , % # ^ w.e.e.e.1.v - X . & 3 B 1.e.4.4 . + + @ 2 >.",
"w.P 1 1 , > > % $ + - #.w.e.e.e.e.e.e.e.e.e.4.l . X + + X + N -.",
"w.3.8 , , % % $ $ $ # X o d C +.;.:.:. .v 3   X X + + X + = ,.:.",
"t.6.1.c 8 0 8 8 q 8 8 2 2 : : - : - - - : 2 2 5 8 2 2 2 N >.-.t.",
"t.t.4.>.>.>.>.,.>.>.>.>.>.>.>.>.>.>.>.>.>.>.>.>.>.>.>.>.-.:.t.t."
};
